# xmcd CD database file
#
# Track frame offsets:
#	225
#	25861
#	48084
#	61695
#	73866
#	85019
#	111454
#	126743
#	152565
#	169598
#	185282
#	203670
#	220169
#	238295
#	262069
#	274593
#	293754
#	312476
#
# Disc length: 4412 seconds
#
# Revision: 0
# Processed by: cddbd v1.5.2PL0 Copyright (c) Steve Scherf et al.
# Submitted via: CDex 1.70beta2
#
DISCID=0b113912
DTITLE=Janet Seidel - Sweet Days 1992-2009 - MZCF-1201
DYEAR=2009
DGENRE=Jazz
TTITLE0=The Very Thought Of You
TTITLE1=Somebody Loves Me - Blue Skies
TTITLE2=Till There Was You
TTITLE3=Dear Heart
TTITLE4=Once Upon A Summertime
TTITLE5=Corcovado
TTITLE6=Nice Work If You Can Get It
TTITLE7=Somewhere Over The Rainbow
TTITLE8=Begin the Beguine
TTITLE9=Charade
TTITLE10=You Belong To Me
TTITLE11=Rascinatin' Rhythm
TTITLE12=Embraceable You
TTITLE13=Fever
TTITLE14=A Man And A Woman
TTITLE15=Moon River
TTITLE16=Johnny Guitar
TTITLE17=Aura Lee
EXTD=YEAR: 2009
EXTT0=
EXTT1=
EXTT2=
EXTT3=
EXTT4=
EXTT5=
EXTT6=
EXTT7=
EXTT8=
EXTT9=
EXTT10=
EXTT11=
EXTT12=
EXTT13=
EXTT14=
EXTT15=
EXTT16=
EXTT17=
PLAYORDER=
